<svg width="62" height="62" viewBox="0 0 62 62" fill="none" xmlns="http://www.w3.org/2000/svg">
<circle cx="31" cy="31" r="31" fill="#084E9D"/>
<path d="M15.6182 30.9049H44.163C44.163 30.9049 42.7198 41.0081 36.947 42.9321L42.987 43.9481C42.987 43.9481 45.5526 45.6585 41.811 46.0865H19.1462C19.1462 46.0865 14.763 45.8729 17.2222 43.6273L20.3222 43.3065H21.1774L21.9254 43.4137L22.7806 43.3065H23.6358C23.6366 43.3065 15.511 40.7409 15.6182 30.9049Z" fill="white"/>
<path d="M46.0876 32.8855L46.0874 32.8855C45.7431 32.8681 45.3985 32.8505 45.0542 32.833L45.0537 32.8329L46.0876 32.8855ZM46.0876 32.8855C46.1835 32.8903 46.2784 32.8948 46.3726 32.8992C46.6045 32.9102 46.8323 32.9209 47.0612 32.9358L47.0616 32.9358M46.0876 32.8855L47.0616 32.9358M47.0616 32.9358C47.3103 32.9516 47.5243 32.9764 47.7147 33.0407L47.7154 33.0409M47.0616 32.9358L47.7154 33.0409M47.7154 33.0409C47.8895 33.0994 48.0093 33.1877 48.0727 33.2929L48.0731 33.2934M47.7154 33.0409L48.0731 33.2934M48.0731 33.2934C48.1551 33.429 48.1862 33.613 48.1893 33.8583M48.0731 33.2934L48.1893 33.8583M48.1893 33.8583C48.1918 34.077 48.1817 34.2922 48.171 34.5201C48.1671 34.6048 48.163 34.6911 48.1595 34.7801L48.1595 34.7804L48.1394 35.2985L48.1192 35.8166L48.1192 35.8167C48.1164 35.8907 48.1138 35.9638 48.1113 36.0359C48.0913 36.6103 48.0733 37.1288 47.9186 37.616C47.7796 38.0533 47.5064 38.4326 47.1406 38.7447C46.7738 39.0566 46.337 39.2974 45.8677 39.4997L45.8675 39.4998C45.3307 39.7315 44.7683 39.9123 44.1941 40.0507C43.6039 40.1925 43.0025 40.287 42.3978 40.3295L42.3977 40.3295C41.7944 40.3722 41.1878 40.3652 40.5858 40.3082L40.5855 40.3082C40.4371 40.2943 40.289 40.2773 40.1419 40.2573C40.0034 40.2384 39.8581 40.279 39.75 40.3844C39.6519 40.48 39.6134 40.6001 39.6077 40.7001C39.5965 40.8946 39.7174 41.1678 40.0248 41.2097L40.0251 41.2097C40.6833 41.2989 41.3489 41.333 42.013 41.3106C42.6772 41.2882 43.3405 41.2111 43.9923 41.0794C43.9923 41.0794 43.9923 41.0794 43.9923 41.0794L43.9605 40.9217C44.1014 40.8932 44.2417 40.8621 44.3814 40.8285L44.3817 40.8284C44.8802 40.7082 45.3749 40.557 45.8568 40.3689C45.8568 40.3689 45.8568 40.3689 45.8569 40.3689C45.9668 40.3259 46.076 40.2811 46.1845 40.2343M48.1893 33.8583L47.4745 39.7029C47.4745 39.7029 47.4745 39.7029 47.4745 39.7029L47.3805 39.5723M46.1845 40.2343C46.1844 40.2343 46.1844 40.2343 46.1843 40.2344L46.0897 40.0149C46.0897 40.0149 46.0898 40.0149 46.0898 40.0149L46.1845 40.2343ZM46.1845 40.2343C46.593 40.0582 47.0033 39.8453 47.3805 39.5723M47.3805 39.5723L47.2408 39.3783M47.3805 39.5723L47.2408 39.3783M47.2408 39.3783C47.3313 39.3131 47.4194 39.2443 47.5042 39.1719C47.5043 39.1718 47.5043 39.1718 47.5044 39.1718C47.8294 38.8943 48.1076 38.5632 48.2961 38.1776L47.2408 39.3783ZM44.0715 31.8234C43.9322 31.8153 43.7982 31.8667 43.702 31.9667C43.613 32.0592 43.5745 32.1735 43.5687 32.2745C43.5629 32.3756 43.5881 32.4942 43.6669 32.5968C43.7527 32.7084 43.8815 32.7735 44.0204 32.7804L44.0715 31.8234ZM49.0602 36.3139C49.0825 35.788 49.1022 35.2612 49.1218 34.7358C49.1283 34.562 49.1348 34.3884 49.1414 34.2149L49.1414 34.2148L49.1414 34.2138C49.1517 33.9397 49.1646 33.5952 49.0808 33.2569L49.0807 33.2565C48.9951 32.9129 48.8035 32.5934 48.4945 32.3708L48.4939 32.3704C48.2088 32.1658 47.8808 32.0792 47.603 32.0318L47.6017 32.0316C47.3377 31.9875 47.0677 31.9749 46.8268 31.9636C46.7812 31.9614 46.7367 31.9593 46.6934 31.9571L46.6929 31.9571C45.9906 31.9216 45.2885 31.8861 44.5865 31.8498L44.5783 32.0077C44.407 31.999 44.2358 31.9903 44.0646 31.9816L44.0749 31.8236L49.0602 36.3139Z" fill="white" stroke="white" stroke-width="0.8"/>
<path d="M28.2358 23.4792C28.5448 22.9655 28.8741 22.3198 28.7764 21.6123C28.7764 21.6123 28.7764 21.6122 28.7764 21.6122L28.6581 21.6286C28.656 21.6139 28.6538 21.5991 28.6513 21.5844L28.6513 21.5843C28.5749 21.1295 28.2906 20.5618 27.7435 20.3937L27.779 20.2808C27.7022 20.2566 27.6265 20.2428 27.5545 20.2343C27.4658 20.2231 27.37 20.2495 27.3 20.3232C27.2365 20.39 27.217 20.4717 27.2172 20.5354C27.2176 20.657 27.2993 20.825 27.4923 20.8496L27.4923 20.8496L27.4933 20.8498C27.8347 20.8918 28.0876 21.2467 28.1582 21.667C28.2435 22.1776 27.9921 22.6843 27.6821 23.1961L27.785 23.2585C27.737 23.3377 27.6866 23.4188 27.6354 23.5012C27.5169 23.6919 27.3937 23.89 27.2852 24.0892L27.2849 24.0897C27.277 24.1043 27.2692 24.1188 27.2615 24.1334C27.2614 24.1334 27.2614 24.1334 27.2614 24.1334C27.0999 24.4365 26.9595 24.7515 26.8424 25.075L26.8423 25.0753C26.8403 25.0809 26.8383 25.0866 26.8362 25.0922L26.723 25.0515C26.723 25.0516 26.723 25.0516 26.723 25.0516M28.2358 23.4792C28.1727 23.5843 28.1103 23.6846 28.0492 23.7828C27.9357 23.9652 27.8265 24.1408 27.7244 24.3282C27.5647 24.6228 27.4267 24.9297 27.3127 25.2449C27.0873 25.8702 26.9531 26.5284 26.9184 27.1923L26.9183 27.1933C26.9091 27.3567 26.9068 27.5212 26.9106 27.6854L26.9106 27.6854C26.9147 27.8604 26.9196 28.0131 26.9494 28.156C26.9769 28.2867 27.0224 28.3859 27.0899 28.4525L27.0057 28.5378C27.0584 28.5923 27.1199 28.6301 27.1878 28.6473L27.1889 28.6476C27.2176 28.655 27.2506 28.6573 27.2912 28.6529L27.2739 28.5351C27.4667 28.5067 27.5915 28.6465 27.6243 28.7656C27.6414 28.8274 27.6436 28.9106 27.601 28.991C27.5537 29.0804 27.4686 29.1325 27.3788 29.1458L27.3777 29.1459C27.2802 29.1599 27.1742 29.1601 27.0643 29.1318C26.6025 29.0144 26.3928 28.5768 26.3329 28.2312C26.2997 28.0434 26.2932 27.8571 26.29 27.6872L26.29 27.6871C26.2867 27.5081 26.2891 27.3284 26.2991 27.148M28.2358 23.4792C28.2358 23.4793 28.2358 23.4793 28.2357 23.4793L28.1326 23.4173L28.6581 21.6286C28.7534 22.307 28.4253 22.9305 28.1327 23.4172L28.2358 23.4792C28.2358 23.4792 28.2358 23.4792 28.2358 23.4792ZM26.2991 27.148C26.2991 27.1479 26.2991 27.1479 26.2991 27.1478L26.4197 27.1545C26.4576 26.4509 26.5994 25.7543 26.8362 25.0922L26.723 25.0516M26.2991 27.148C26.338 26.4334 26.4812 25.7248 26.723 25.0516M26.2991 27.148C26.2991 27.148 26.2991 27.148 26.2991 27.1481L26.4197 27.1546L27.7851 23.2584L27.6822 23.196C27.6348 23.2741 27.5853 23.3536 27.5351 23.4345C27.4066 23.6413 27.2729 23.8565 27.1553 24.0768L27.1553 24.0769C26.9881 24.3906 26.8431 24.7169 26.723 25.0516" fill="white" stroke="white" stroke-width="0.5"/>
<path d="M30.5844 23.4792C30.8935 22.9655 31.2228 22.3198 31.125 21.6123C31.125 21.6123 31.125 21.6122 31.125 21.6122L31.0067 21.6286C31.0046 21.6139 31.0024 21.5991 30.9999 21.5844L30.9999 21.5843C30.9236 21.1295 30.6392 20.5618 30.0921 20.3937L30.1277 20.2808C30.0508 20.2566 29.9751 20.2428 29.9031 20.2343C29.8151 20.2233 29.7194 20.2489 29.6491 20.3222C29.585 20.389 29.565 20.471 29.5652 20.5354C29.5657 20.6592 29.6495 20.8255 29.8412 20.8497L29.8412 20.8497L29.842 20.8498C30.1834 20.8918 30.4363 21.2467 30.5068 21.667C30.5922 22.1776 30.3407 22.6843 30.0307 23.1961L30.1337 23.2585C30.0857 23.3377 30.0353 23.4188 29.984 23.5012C29.8655 23.6919 29.7424 23.89 29.6338 24.0892L29.6335 24.0897C29.6257 24.1043 29.6179 24.1188 29.6101 24.1334C29.6101 24.1334 29.6101 24.1334 29.6101 24.1334C29.4485 24.4365 29.3081 24.7515 29.1911 25.075L29.1911 25.075C29.189 25.0807 29.1869 25.0865 29.1849 25.0922L29.0717 25.0515C29.0717 25.0516 29.0716 25.0516 29.0716 25.0516M30.5844 23.4792C30.5213 23.5843 30.4589 23.6846 30.3978 23.7828C30.2844 23.9652 30.1751 24.1408 30.073 24.3282C29.9133 24.6229 29.7753 24.9298 29.6612 25.2451C29.4351 25.8702 29.3009 26.5283 29.2662 27.1923L29.2661 27.1933C29.2569 27.3567 29.2546 27.5212 29.2585 27.6854L29.2585 27.6854C29.2625 27.8604 29.2675 28.0131 29.2972 28.156C29.3247 28.2867 29.3702 28.3859 29.4377 28.4525L29.3535 28.5378C29.4063 28.5923 29.4678 28.6301 29.5356 28.6473L29.5367 28.6476C29.5654 28.655 29.5984 28.6573 29.6391 28.6529L29.6217 28.5351C29.8145 28.5067 29.9393 28.6465 29.9721 28.7656C29.9892 28.8274 29.9914 28.9106 29.9488 28.991C29.9015 29.0804 29.8164 29.1325 29.7266 29.1458L29.7255 29.1459C29.6281 29.1599 29.522 29.1601 29.4121 29.1318C28.9501 29.0143 28.7405 28.5764 28.6806 28.2307L28.6806 28.2305C28.6483 28.0432 28.6418 27.8573 28.6386 27.6872L28.6386 27.6871C28.6353 27.5081 28.6377 27.3284 28.6477 27.148M30.5844 23.4792C30.5844 23.4793 30.5844 23.4793 30.5844 23.4793L30.4812 23.4173L31.0067 21.6286C31.1021 22.307 30.7739 22.9305 30.4813 23.4172L30.5845 23.4792C30.5844 23.4792 30.5844 23.4792 30.5844 23.4792ZM28.6477 27.148C28.6477 27.1479 28.6477 27.1479 28.6477 27.1478L28.7675 27.1545C28.8054 26.4509 28.9472 25.7543 29.1848 25.0922L29.0716 25.0516M28.6477 27.148C28.6866 26.4334 28.8299 25.7248 29.0716 25.0516M28.6477 27.148C28.6477 27.148 28.6477 27.148 28.6477 27.1481L28.7675 27.1546L30.1337 23.2584L30.0308 23.196C29.9834 23.2741 29.934 23.3536 29.8838 23.4345C29.7552 23.6413 29.6215 23.8565 29.504 24.0768L29.5039 24.0769C29.3367 24.3906 29.1918 24.7169 29.0716 25.0516M29.3534 28.5378C29.2719 28.4536 29.2112 28.3297 29.18 28.1807L29.3534 28.5378Z" fill="white" stroke="white" stroke-width="0.5"/>
<path d="M32.5189 20.8497L32.5189 20.8497C32.3272 20.8255 32.2437 20.6593 32.2429 20.5362C32.2425 20.4723 32.2619 20.3903 32.3255 20.3233C32.3955 20.2494 32.4914 20.2231 32.5801 20.2343C32.6521 20.2428 32.7278 20.2566 32.8046 20.2808L32.7691 20.3934C33.3167 20.5613 33.6013 21.1293 33.6776 21.5843L33.6777 21.5844C33.6801 21.5991 33.6824 21.6138 33.6844 21.6285L33.8019 21.6122M32.5189 20.8497L33.1588 23.4176L33.2613 23.4793C33.2613 23.4793 33.2613 23.4793 33.2614 23.4792C33.2614 23.4792 33.2614 23.4792 33.2614 23.4792L33.1588 23.4176C33.4515 22.9307 33.7798 22.3071 33.6844 21.6285L33.8019 21.6123C33.8019 21.6123 33.8019 21.6122 33.8019 21.6122M32.5189 20.8497L32.5197 20.8498C32.8611 20.8918 33.114 21.2467 33.1845 21.667M32.5189 20.8497L33.1845 21.667M33.8019 21.6122C33.7294 21.0868 33.4168 20.4724 32.8041 20.2807L32.7689 20.3934L33.8019 21.6122ZM32.6449 24.2713C32.6375 24.2848 32.6302 24.2984 32.6229 24.312C32.4696 24.5996 32.3365 24.8983 32.2258 25.2043L32.3383 25.2448C32.3383 25.2449 32.3382 25.2449 32.3382 25.2449M32.6449 24.2713L31.8241 27.1866C31.8241 27.1864 31.8241 27.1862 31.8241 27.186C31.8243 27.1825 31.8245 27.179 31.8247 27.1755L31.8247 27.1752C31.861 26.509 31.9946 25.8481 32.22 25.2206L32.22 25.2205C32.2219 25.2151 32.2238 25.2098 32.2258 25.2044L32.3382 25.2451C32.3382 25.2451 32.3382 25.245 32.3382 25.2449M32.6449 24.2713L32.7498 24.3285C32.7498 24.3284 32.7499 24.3283 32.7499 24.3282M32.6449 24.2713L31.3255 27.148M32.3382 25.2449C32.1128 25.8702 31.9786 26.5284 31.9439 27.1923L31.9439 27.1933C31.9347 27.3567 31.9324 27.5212 31.9362 27.6854L31.9362 27.6854C31.9403 27.8604 31.9452 28.0131 31.975 28.156C32.0025 28.2867 32.048 28.3859 32.1154 28.4525L32.0312 28.5378C32.084 28.5923 32.1455 28.6301 32.2134 28.6473L32.2144 28.6476C32.2432 28.655 32.2761 28.6573 32.3168 28.6529L32.2994 28.5351C32.4923 28.5067 32.617 28.6465 32.6499 28.7656C32.6669 28.8274 32.6691 28.9106 32.6266 28.991C32.5792 29.0804 32.4942 29.1325 32.4043 29.1458L32.4032 29.1459C32.3058 29.1599 32.1997 29.1601 32.0899 29.1318C31.6279 29.0143 31.4182 28.5764 31.3583 28.2307L31.3583 28.2305C31.326 28.0432 31.3195 27.8573 31.3163 27.6872L31.3163 27.6871C31.313 27.5081 31.3155 27.3284 31.3255 27.148M32.3382 25.2449C32.4523 24.9297 32.5903 24.6228 32.7499 24.3282M33.1845 21.667C33.2699 22.1776 33.0185 22.6843 32.7084 23.1961L32.8108 23.2581L33.1845 21.667ZM31.3255 27.148C31.3644 26.4334 31.5076 25.7248 31.7494 25.0516L31.3255 27.148ZM32.7499 24.3282C32.75 24.3281 32.75 24.328 32.7501 24.328L32.645 24.271L32.7499 24.3282ZM32.1519 28.8896C32.0333 28.8596 31.9349 28.7977 31.8554 28.7163C31.8553 28.7163 31.8553 28.7163 31.8553 28.7162C31.7295 28.5875 31.6506 28.4099 31.6131 28.2319C31.6131 28.2318 31.6131 28.2318 31.6131 28.2317C31.61 28.2171 31.6072 28.2026 31.6047 28.1881L31.4363 27.6971C31.44 27.8522 31.4442 28.0313 31.4762 28.2102C31.4762 28.2102 31.4762 28.2103 31.4763 28.2103C31.4791 28.2263 31.4822 28.2423 31.4855 28.2583L31.4856 28.2587C31.5237 28.4399 31.5998 28.6462 31.7643 28.8085L31.7645 28.8086C31.8531 28.8958 31.9758 28.978 32.1194 29.0153L32.1519 28.8896ZM32.1519 28.8896L32.1199 29.0155C32.1985 29.0358 32.2832 29.0428 32.372 29.0298C32.2554 29.0468 32.1847 28.9595 32.1679 28.8985C32.1674 28.8968 32.1669 28.895 32.1665 28.8932C32.1616 28.8921 32.1567 28.8909 32.1519 28.8896ZM32.1775 28.772C32.0881 28.7478 32.0055 28.6951 31.9399 28.6305L32.1775 28.772ZM32.1775 28.772C32.1797 28.767 32.182 28.762 32.1847 28.757C32.1852 28.7561 32.1857 28.7551 32.1863 28.7541C32.1867 28.7534 32.1871 28.7527 32.1875 28.752C32.2189 28.6963 32.2701 28.6648 32.3169 28.6539L32.3359 28.7824M32.1775 28.772L32.3507 28.7819M32.0311 28.5378C31.9496 28.4536 31.8889 28.3297 31.8577 28.1807L32.0311 28.5378ZM32.0311 28.5378L32.1153 28.4523C32.1845 28.5204 32.2552 28.5416 32.2998 28.5351L32.317 28.6529C32.322 28.6524 32.3272 28.6517 32.3325 28.651L32.3512 28.7819C32.4158 28.787 32.4385 28.888 32.3679 28.8984L32.0311 28.5378ZM32.3507 28.7819L32.3314 28.6511C32.3267 28.6518 32.3219 28.6527 32.3171 28.6538L32.3359 28.7824M32.3507 28.7819C32.346 28.7815 32.341 28.7817 32.3359 28.7824M32.3507 28.7819L32.3359 28.7824M32.8109 23.2581L32.7085 23.196C32.6612 23.2741 32.6117 23.3536 32.5615 23.4345C32.4329 23.6413 32.2992 23.8565 32.1817 24.0768L32.1817 24.0769C32.0144 24.3906 31.8695 24.7168 31.7494 25.0515L32.8109 23.2581ZM31.8577 28.1805C31.8553 28.1689 31.8531 28.1572 31.851 28.1454L31.7226 28.1676C31.6943 28.0111 31.69 27.8498 31.6863 27.6912L31.8577 28.1805Z" fill="white" stroke="white" stroke-width="0.5"/>
</svg>
