<svg width="62" height="62" viewBox="0 0 62 62" fill="none" xmlns="http://www.w3.org/2000/svg">
<circle cx="31" cy="31" r="31" fill="#084E9D"/>
<path d="M46.0059 26.2488C46.1745 26.0895 46.4031 26 46.6415 26C46.8799 26 47.1085 26.0895 47.2771 26.2488L51.3226 30.0722C51.4911 30.2316 51.5858 30.4476 51.5858 30.6729C51.5858 30.8982 51.4911 31.1143 51.3226 31.2736L47.2771 35.0971C47.1075 35.2519 46.8805 35.3375 46.6447 35.3356C46.409 35.3337 46.1835 35.2443 46.0169 35.0868C45.8502 34.9292 45.7556 34.7161 45.7536 34.4933C45.7515 34.2706 45.8422 34.0559 46.0059 33.8957L48.4395 31.5226H39.899C39.6606 31.5226 39.4319 31.4331 39.2633 31.2737C39.0947 31.1144 39 30.8983 39 30.6729C39 30.4476 39.0947 30.2315 39.2633 30.0721C39.4319 29.9128 39.6606 29.8233 39.899 29.8233H48.4395L46.0059 27.4502C45.8374 27.2909 45.7427 27.0748 45.7427 26.8495C45.7427 26.6242 45.8374 26.4081 46.0059 26.2488Z" fill="white"/>
<circle cx="30.7802" cy="25.2021" r="3.72946" stroke="white" stroke-width="3"/>
<path d="M47.8631 38.4951C45.9993 42.6659 42.623 45.9835 38.4086 47.7854C34.1943 49.5872 29.4519 49.7407 25.1288 48.2151C20.8057 46.6895 17.22 43.5972 15.0878 39.5557C12.9556 35.5143 12.434 30.8211 13.627 26.4137C14.82 22.0062 17.6399 18.2087 21.5235 15.7798C25.407 13.3509 30.0684 12.4692 34.5767 13.3109C39.0849 14.1526 43.1081 16.6557 45.8429 20.3203" stroke="white" stroke-width="3"/>
<path d="M36.6015 35.661C36.6015 36.237 36.2409 36.9587 35.2418 37.6081C34.2569 38.2482 32.807 38.6932 31.1289 38.6932C29.4508 38.6932 28.0008 38.2482 27.016 37.6081C26.0169 36.9587 25.6562 36.237 25.6562 35.661C25.6562 35.085 26.0169 34.3633 27.016 33.7139C28.0008 33.0737 29.4508 32.6288 31.1289 32.6288C32.807 32.6288 34.2569 33.0737 35.2418 33.7139C36.2409 34.3633 36.6015 35.085 36.6015 35.661Z" stroke="white" stroke-width="3"/>
</svg>
