<svg width="62" height="62" viewBox="0 0 62 62" fill="none" xmlns="http://www.w3.org/2000/svg">
<circle cx="31" cy="31" r="31" fill="#084E9D"/>
<path d="M32.3419 44.2C32.453 44.2 32.5641 44.1722 32.6752 44.1166C32.7863 44.0611 32.8696 44.0055 32.9252 43.95L46.5919 30.2833C46.9252 29.95 47.1685 29.575 47.3219 29.1583C47.4752 28.7416 47.5513 28.325 47.5502 27.9083C47.5502 27.4638 47.4741 27.04 47.3219 26.6366C47.1696 26.2333 46.9263 25.8794 46.5919 25.575L39.5085 18.4916C39.203 18.1583 38.8485 17.9155 38.4452 17.7633C38.0419 17.6111 37.6191 17.5344 37.1769 17.5333C36.7602 17.5333 36.3435 17.61 35.9269 17.7633C35.5102 17.9166 35.1352 18.1594 34.8019 18.4916L34.3435 18.95L37.4269 22.075C37.8435 22.4638 38.1491 22.9083 38.3435 23.4083C38.538 23.9083 38.6352 24.4361 38.6352 24.9916C38.6352 26.1583 38.2396 27.1377 37.4485 27.9299C36.6574 28.7222 35.678 29.1177 34.5102 29.1166C33.9546 29.1166 33.4202 29.0194 32.9069 28.825C32.3935 28.6305 31.9419 28.3388 31.5519 27.95L28.4252 24.8666L21.1335 32.1583C21.0502 32.2416 20.988 32.3322 20.9469 32.43C20.9058 32.5277 20.8846 32.6316 20.8835 32.7416C20.8835 32.9638 20.9669 33.1655 21.1335 33.3466C21.3002 33.5277 21.4946 33.6177 21.7169 33.6166C21.828 33.6166 21.9391 33.5888 22.0502 33.5333C22.1613 33.4777 22.2446 33.4222 22.3002 33.3666L27.9669 27.7L30.3002 30.0333L24.6752 35.6999C24.5919 35.7833 24.5296 35.8738 24.4885 35.9716C24.4474 36.0694 24.4263 36.1733 24.4252 36.2833C24.4252 36.5055 24.5085 36.7 24.6752 36.8666C24.8419 37.0333 25.0363 37.1166 25.2585 37.1166C25.3696 37.1166 25.4808 37.0888 25.5919 37.0333C25.703 36.9777 25.7863 36.9222 25.8419 36.8666L31.5085 31.2416L33.8419 33.575L28.2169 39.2416C28.1335 39.2972 28.0713 39.3805 28.0302 39.4916C27.9891 39.6027 27.968 39.7138 27.9669 39.825C27.9669 40.0472 28.0502 40.2416 28.2169 40.4083C28.3835 40.575 28.578 40.6583 28.8002 40.6583C28.9113 40.6583 29.0158 40.6372 29.1135 40.5949C29.2113 40.5527 29.3013 40.4905 29.3835 40.4083L35.0502 34.7833L37.3835 37.1166L31.7169 42.7833C31.6335 42.8666 31.5713 42.9566 31.5302 43.0533C31.4891 43.15 31.468 43.2544 31.4669 43.3666C31.4669 43.5888 31.5574 43.7833 31.7385 43.95C31.9196 44.1166 32.1208 44.2 32.3419 44.2ZM32.3002 47.5333C31.2724 47.5333 30.363 47.1933 29.5719 46.5133C28.7808 45.8333 28.3152 44.9788 28.1752 43.95C27.2308 43.8111 26.4391 43.4222 25.8002 42.7833C25.1613 42.1444 24.7724 41.3527 24.6335 40.4083C23.6891 40.2694 22.9046 39.8738 22.2802 39.2216C21.6558 38.5694 21.2735 37.7844 21.1335 36.8666C20.078 36.7277 19.2169 36.2694 18.5502 35.4916C17.8835 34.7138 17.5502 33.7972 17.5502 32.7416C17.5502 32.1861 17.6546 31.6516 17.8635 31.1383C18.0724 30.625 18.3708 30.1733 18.7585 29.7833L28.4252 20.1583L33.8835 25.6166C33.9391 25.7 34.0224 25.7627 34.1335 25.805C34.2446 25.8472 34.3558 25.8677 34.4669 25.8666C34.7169 25.8666 34.9252 25.7905 35.0919 25.6383C35.2585 25.4861 35.3419 25.2844 35.3419 25.0333C35.3419 24.9222 35.3208 24.8111 35.2785 24.7C35.2363 24.5888 35.1741 24.5055 35.0919 24.45L29.1335 18.4916C28.828 18.1583 28.4741 17.9155 28.0719 17.7633C27.6696 17.6111 27.2458 17.5344 26.8002 17.5333C26.3835 17.5333 25.9669 17.61 25.5502 17.7633C25.1335 17.9166 24.7585 18.1594 24.4252 18.4916L18.5502 24.4083C18.3002 24.6583 18.0919 24.95 17.9252 25.2833C17.7585 25.6166 17.6474 25.95 17.5919 26.2833C17.5363 26.6166 17.5363 26.9572 17.5919 27.3049C17.6474 27.6527 17.7585 27.9788 17.9252 28.2833L15.5085 30.6999C15.0363 30.0611 14.6891 29.36 14.4669 28.5966C14.2446 27.8333 14.1613 27.0622 14.2169 26.2833C14.2724 25.5044 14.4669 24.7477 14.8002 24.0133C15.1335 23.2788 15.5919 22.6188 16.1752 22.0333L22.0502 16.1583C22.7169 15.5194 23.4602 15.0333 24.2802 14.7C25.1002 14.3666 25.9402 14.2 26.8002 14.2C27.6602 14.2 28.5008 14.3666 29.3219 14.7C30.143 15.0333 30.8719 15.5194 31.5085 16.1583L31.9669 16.6166L32.4252 16.1583C33.0919 15.5194 33.8352 15.0333 34.6552 14.7C35.4752 14.3666 36.3152 14.2 37.1752 14.2C38.0352 14.2 38.8757 14.3666 39.6969 14.7C40.518 15.0333 41.2469 15.5194 41.8835 16.1583L48.9252 23.2C49.5641 23.8388 50.0502 24.575 50.3835 25.4083C50.7169 26.2416 50.8835 27.0888 50.8835 27.95C50.8835 28.8111 50.7169 29.6516 50.3835 30.4716C50.0502 31.2916 49.5641 32.0205 48.9252 32.6583L35.2585 46.2833C34.8696 46.6722 34.4185 46.9777 33.9052 47.1999C33.3919 47.4222 32.8569 47.5333 32.3002 47.5333Z" fill="white"/>
</svg>
